<?xml version="1.0" standalone="no"?><svg xmlns="http://www.w3.org/2000/svg" viewBox="0 0 1440 320"><path fill="#0f172a" fill-opacity="1" d="M0,64L20,69.3C40,75,80,85,120,80C160,75,200,53,240,37.3C280,21,320,11,360,37.3C400,64,440,128,480,154.7C520,181,560,171,600,160C640,149,680,139,720,117.3C760,96,800,64,840,58.7C880,53,920,75,960,90.7C1000,107,1040,117,1080,149.3C1120,181,1160,235,1200,266.7C1240,299,1280,309,1320,288C1360,267,1400,213,1420,186.7L1440,160L1440,320L1420,320C1400,320,1360,320,1320,320C1280,320,1240,320,1200,320C1160,320,1120,320,1080,320C1040,320,1000,320,960,320C920,320,880,320,840,320C800,320,760,320,720,320C680,320,640,320,600,320C560,320,520,320,480,320C440,320,400,320,360,320C320,320,280,320,240,320C200,320,160,320,120,320C80,320,40,320,20,320L0,320Z"></path></svg>