<?xml version="1.0" encoding="UTF-8"?>
<!DOCTYPE svg PUBLIC "-//W3C//DTD SVG 20010904//EN" "http://www.w3.org/TR/2001/REC-SVG-20010904/DTD/svg10.dtd">
<svg version="1.0" xmlns="http://www.w3.org/2000/svg" width="602pt" height="512pt" viewBox="0 0 602 512" style="" preserveAspectRatio="xMidYMid meet">
<g fill="#0f172aFF" stroke="#0f172aFF">
<path d="M 25.882 2.381 C 17.206 5.481 8.292 13.659 3.954 22.500 L 1.500 27.500 1.500 254.000 L 1.500 480.500 3.874 485.751 C 6.708 492.021 17.056 502.152 23.888 505.345 L 28.500 507.500 254.521 507.500 L 480.542 507.500 487.231 504.207 C 492.366 501.679 495.181 499.395 499.350 494.373 C 509.475 482.173 508.500 507.902 508.500 252.979 L 508.500 29.458 505.279 22.915 C 501.316 14.865 493.657 6.698 487.288 3.731 L 482.500 1.500 256.000 1.294 C 72.931 1.127 28.806 1.336 25.882 2.381 M 367.000 187.623 C 377.010 188.792 390.346 194.696 400.992 202.671 C 413.038 211.695 422.479 228.351 427.533 249.500 C 431.163 264.689 432.108 294.339 431.328 368.565 L 430.672 431.000 394.885 431.000 L 359.097 431.000 358.759 358.750 C 358.387 279.161 358.600 281.989 351.958 268.336 C 346.418 256.948 336.697 251.074 322.007 250.236 C 300.832 249.029 285.391 257.300 278.536 273.523 C 274.073 284.085 273.670 290.915 273.268 362.750 L 272.886 431.000 236.443 431.000 L 200.000 431.000 200.000 311.500 L 200.000 192.000 235.000 192.000 L 270.000 192.000 270.000 208.000 C 270.000 220.838 270.269 224.000 271.363 224.000 C 272.112 224.000 275.085 220.826 277.969 216.948 C 289.243 201.786 310.069 188.765 325.346 187.326 C 328.731 187.008 331.725 186.522 332.000 186.248 C 332.545 185.705 359.720 186.772 367.000 187.623 M 151.000 311.500 L 151.000 431.000 114.500 431.000 L 78.000 431.000 78.000 311.500 L 78.000 192.000 114.500 192.000 L 151.000 192.000 151.000 311.500 M 131.259 75.702 C 140.368 80.016 148.129 87.535 152.506 96.286 C 155.870 103.008 156.000 103.683 155.999 114.384 C 155.998 124.601 155.764 125.986 153.100 131.500 C 148.114 141.822 138.824 150.837 130.076 153.841 C 118.428 157.842 102.690 156.833 93.594 151.502 C 85.104 146.527 77.246 136.852 73.854 127.197 C 67.061 107.865 76.846 86.217 97.000 75.983 C 103.976 72.441 105.856 72.066 115.500 72.291 C 123.301 72.473 125.400 72.927 131.259 75.702 "/></g>
<g fill="#0f172aFF" stroke="#0f172aFF">
<path d="M 553.552 442.658 C 536.492 447.893 527.091 465.680 531.455 484.469 C 534.090 495.818 539.238 502.380 550.000 508.106 C 553.962 510.214 555.816 510.500 565.500 510.500 C 575.484 510.500 576.966 510.254 581.546 507.837 C 600.518 497.822 606.702 474.068 595.092 455.798 C 587.333 443.586 569.209 437.853 553.552 442.658 M 577.205 448.766 C 582.380 451.056 589.218 457.727 592.306 463.500 C 595.479 469.433 595.382 481.709 592.108 488.358 C 585.069 502.658 568.152 509.317 554.500 503.161 C 539.249 496.285 531.796 478.394 538.394 464.500 C 541.683 457.575 549.541 450.210 556.159 447.849 C 562.644 445.536 570.694 445.887 577.205 448.766 "/></g>
<g fill="#0f172aFF" stroke="#0f172aFF">
<path d="M 552.000 476.000 L 552.000 495.000 555.500 495.000 L 559.000 495.000 559.000 487.000 L 559.000 479.000 561.841 479.000 C 564.241 479.000 565.122 479.814 567.520 484.250 C 572.591 493.634 573.947 495.000 578.188 495.000 C 580.285 495.000 582.000 494.755 582.000 494.455 C 582.000 494.155 579.750 490.575 577.000 486.500 C 574.250 482.425 572.000 478.845 572.000 478.545 C 572.000 478.245 572.834 478.000 573.854 478.000 C 574.874 478.000 576.899 476.896 578.354 475.548 C 580.479 473.579 581.000 472.186 581.000 468.482 C 581.000 459.105 577.618 457.000 562.550 457.000 L 552.000 457.000 552.000 476.000 M 570.043 463.023 C 573.365 464.801 574.361 467.800 572.548 470.567 C 571.154 472.695 570.205 473.000 564.977 473.000 L 559.000 473.000 559.000 467.500 L 559.000 462.000 563.566 462.000 C 566.077 462.000 568.992 462.460 570.043 463.023 "/></g>
</svg>