<svg version="1.0" xmlns="http://www.w3.org/2000/svg" style="" preserveAspectRatio="xMidYMid meet" viewBox="148.62 43.55 199.47 273.78">
<g fill="#ffffffFF" stroke="#ffffffFF">
<path d="M 285.699 143.016 C 267.108 166.382 229.758 213.305 202.699 247.288 C 175.639 281.272 152.848 310.012 152.050 311.155 C 150.759 313.007 150.795 313.377 152.383 314.538 C 153.994 315.716 155.892 313.682 172.083 293.424 C 181.937 281.094 190.000 270.716 190.000 270.363 C 190.000 270.010 190.632 269.221 191.405 268.610 C 192.664 267.616 228.216 223.329 231.584 218.560 C 232.338 217.494 233.101 216.819 233.281 217.060 C 240.206 226.367 248.464 235.926 249.049 235.312 C 249.475 234.865 257.313 225.050 266.467 213.500 C 275.621 201.950 284.881 190.308 287.044 187.630 L 290.977 182.759 291.238 222.630 L 291.500 262.500 305.500 262.500 L 319.500 262.500 319.500 181.516 L 319.500 100.532 285.699 143.016 " fill="#ffffff"/></g>
<g fill="#ffffffFF" stroke="#ffffffFF">
<path d="M 325.500 67.599 C 316.150 79.397 308.050 89.815 307.500 90.751 C 306.950 91.688 305.968 92.914 305.317 93.477 C 304.667 94.040 294.144 107.100 281.934 122.500 C 269.724 137.900 254.989 156.473 249.190 163.774 C 243.391 171.075 238.312 176.925 237.903 176.774 C 237.494 176.623 223.736 159.635 207.330 139.022 L 177.500 101.543 177.500 181.495 L 177.500 261.447 191.750 243.532 L 206.000 225.617 206.000 204.559 L 206.000 183.501 210.000 187.877 C 212.200 190.284 214.000 192.447 214.000 192.685 C 214.000 193.364 222.442 203.887 223.000 203.903 C 223.544 203.920 291.863 118.040 293.500 115.282 C 294.050 114.356 295.215 112.901 296.090 112.049 C 298.784 109.423 306.000 100.266 306.000 99.471 C 306.000 99.058 306.624 98.221 307.387 97.610 C 308.747 96.522 343.831 52.751 345.383 50.206 C 346.134 48.975 344.463 45.916 343.128 46.075 C 342.782 46.116 334.850 55.802 325.500 67.599 " fill="#ffffff"/></g>
</svg>