<svg version="1.0" xmlns="http://www.w3.org/2000/svg" preserveAspectRatio="xMidYMid meet" viewBox="307 323.98 386 353.02">

<g transform="translate(0.000000,1000.000000) scale(0.100000,-0.100000)" fill="#0f172a" stroke="none">
<path d="M3070 4997 l0 -1767 175 0 175 0 2 1273 3 1272 99 -122 c54 -68 100 -123 102 -123 2 0 4 123 4 273 l0 273 -266 330 c-146 181 -272 336 -280 344 -12 12 -14 -233 -14 -1753z"/>
<path d="M6370 6078 c-303 -376 -734 -909 -957 -1185 -223 -277 -409 -503 -413 -503 -4 0 -145 171 -314 380 -169 209 -309 380 -312 380 -2 0 -4 -123 -4 -273 l0 -273 310 -384 c170 -212 313 -386 318 -388 8 -2 218 256 1203 1477 l374 465 3 -1272 2 -1272 175 0 175 0 0 1765 c0 971 -2 1765 -5 1765 -2 0 -252 -307 -555 -682z"/>
<path d="M3830 4966 l0 -1736 173 0 172 0 -3 1240 c-1 682 1 1240 5 1239 5 0 190 -227 413 -504 223 -278 408 -503 412 -502 6 2 268 324 899 1106 l269 334 0 280 0 279 -172 -214 c-95 -117 -357 -442 -582 -721 -225 -279 -412 -507 -416 -507 -4 0 -190 226 -412 503 -223 276 -485 600 -582 721 l-176 218 0 -1736z"/>
<path d="M5997 4743 l-167 -207 0 -653 0 -653 170 0 170 0 0 860 c0 473 -1 860 -3 860 -2 0 -79 -93 -170 -207z"/>
</g>
</svg>